<?xml version="1.0" encoding="utf-8"?>
<!-- Generator: Adobe Illustrator 24.0.1, SVG Export Plug-In . SVG Version: 6.00 Build 0)  -->
<svg version="1.1" id="Capa_5" xmlns="http://www.w3.org/2000/svg" xmlns:xlink="http://www.w3.org/1999/xlink" x="0px" y="0px"
	 viewBox="0 0 1629.62 1315.14" style="enable-background:new 0 0 1629.62 1315.14;" xml:space="preserve">
<style type="text/css">
	.st0{fill:none;stroke:#000000;stroke-width:40;stroke-linecap:round;stroke-miterlimit:10;}
	.st1{stroke:#000000;stroke-width:2;stroke-miterlimit:10;}
	.st2{fill:none;stroke:#C1272D;stroke-width:2;stroke-miterlimit:10;}
	.st3{fill:none;stroke:#C1272D;stroke-miterlimit:10;}
	.st4{fill:url(#SVGID_1_);stroke:#000000;stroke-width:4;stroke-miterlimit:10;}
	.st5{fill:#FADFDF;stroke:#FADFDF;stroke-width:3;stroke-miterlimit:10;}
	.st6{fill:#FFFFFF;stroke:#FFFFFF;stroke-width:2;stroke-miterlimit:10;}
	.st7{fill:#FFFFFF;stroke:#000000;stroke-width:4;stroke-miterlimit:10;}
	.st8{fill:url(#SVGID_2_);stroke:#967979;stroke-width:0.75;stroke-miterlimit:10;}
	.st9{opacity:0.21;}
	.st10{fill:#967979;}
	.st11{fill:url(#SVGID_3_);stroke:#967979;stroke-width:0.75;stroke-miterlimit:10;}
	.st12{fill:url(#SVGID_4_);}
	.st13{fill:none;stroke:#000000;stroke-width:2;stroke-miterlimit:10;}
	.st14{stroke:#000000;stroke-miterlimit:10;}
	.st15{fill:url(#SVGID_5_);stroke:#000000;stroke-width:2;stroke-miterlimit:10;}
	.st16{fill:url(#SVGID_6_);stroke:#000000;stroke-width:2;stroke-miterlimit:10;}
	.st17{fill:url(#SVGID_7_);stroke:#000000;stroke-width:2;stroke-miterlimit:10;}
	.st18{fill:#666666;stroke:#000000;stroke-miterlimit:10;}
	.st19{fill:#CCCCCC;stroke:#000000;stroke-miterlimit:10;}
	.st20{stroke:#000000;stroke-width:2;stroke-linecap:round;stroke-miterlimit:10;}
	.st21{fill:#FFFFFF;}
	.st22{fill:url(#SVGID_8_);stroke:#C79E6A;stroke-width:2;stroke-miterlimit:10;}
	.st23{fill:url(#SVGID_9_);stroke:#C79E6A;stroke-width:2;stroke-miterlimit:10;}
	.st24{fill:none;stroke:#C79E6A;stroke-width:2;stroke-miterlimit:10;}
	.st25{fill:#F1BFBE;stroke:#F1BFBE;stroke-width:3;stroke-miterlimit:10;}
	.st26{fill:url(#SVGID_10_);stroke:#967979;stroke-width:2;stroke-miterlimit:10;}
	.st27{fill:url(#SVGID_11_);stroke:#967979;stroke-width:2;stroke-miterlimit:10;}
</style>
<path class="st0" d="M367.17,536.86c0,0,59.14,46.53,106.04,0c46.9-46.53,124.42,6.66,105.84,63.23"/>
<path class="st1" d="M597.64,499.89c0,0,3.85-5.34,24.76,0c20.91,5.34,14.73,29.57,14.73,29.57s-4.28,14.73,10.93,16.63
	s32.32,16.16,34.22,23.76c0,0-27.44,13.05-47.7,39.32c-20.26,26.27-21.51,48.88-15.61,65.14c0,0-13.68,2.34-19.39-27.06
	c-5.7-29.4-36.73-4.21-36.73-4.21s-18.4,9.03-27.43-3.33s-4.95-42.87-4.95-42.87S571.92,520.69,597.64,499.89z"/>
<path class="st2" d="M878.08,610.25"/>
<path class="st2" d="M1174.48,490.8"/>
<path class="st3" d="M1241.41,1034.17"/>
<linearGradient id="SVGID_1_" gradientUnits="userSpaceOnUse" x1="888.565" y1="780.9911" x2="823.9905" y2="1307.7537">
	<stop  offset="0" style="stop-color:#FFFFFF"/>
	<stop  offset="0.0917" style="stop-color:#EBEBEB"/>
	<stop  offset="0.4448" style="stop-color:#A4A4A4"/>
	<stop  offset="0.6988" style="stop-color:#777777"/>
	<stop  offset="0.8268" style="stop-color:#666666"/>
</linearGradient>
<path class="st4" d="M740.26,390.49c183.92-65.58,364.99,44.2,364.99,44.2s91.25,51.33,136.87,139.72c0,0,55.6,104.08,52.75,198.18
	s-89.82,176.79-89.82,176.79s-99.8,88.4-260.91,142.57c0,0-92.67,9.98-235.25-48.48c0,0-145.43-64.16-196.75-122.61
	c0,0-35.64-47.05-29.94-125.47c0,0,5.7-142.57,61.31-223.84C543.51,571.56,620.8,433.09,740.26,390.49z"/>
<path class="st5" d="M1265.31,762.18c0,0-20.33-64.48-137.96-8.88c0,0-90.53,52.04-80.55,169.66c0,0,3.57,97.68,104.8,52.76
	c0,0-22.63,10.01-42.33-5.69c-19.7-15.7-31.9-59.91-24.73-100.54c7.17-40.63,32.92-95.64,78.5-114.83S1247.86,743.25,1265.31,762.18
	z"/>
<path class="st1" d="M914.2,704.83c0,0,17.47-51.33,75.56-55.25c0,0,33.51-1.43,42.42,31.37c8.91,32.79-2.14,53.68-2.14,53.68
	s-16.04,23.67-45.62,29.73c-29.58,6.06-36,6.06-58.81-6.77C904.48,745.7,911.11,711.84,914.2,704.83z"/>
<path class="st1" d="M1204.34,553.7c0,0-62.02-2.85-26.38,77.7c0,0,5.17,15.15,27.98,18.36c22.81,3.21,31.01-4.1,35.47-11.41
	s15.54-28.93,8.59-41.41c0,0-5.02-19.25-18.09-34.93C1231.9,562.01,1219.07,553.17,1204.34,553.7z"/>
<circle class="st6" cx="973.19" cy="708.93" r="22.17"/>
<circle class="st6" cx="1211.07" cy="598.86" r="18.93"/>
<path class="st7" d="M1109.17,440.53c0,0,52.16-51.75,96.83-52.22c0,0,37.07-3.33,78.42,7.13c41.35,10.46,39.92,25.19,39.92,25.19
	s0.48,18.06-8.55,43.72c0,0-10.46,36.12-29.94,65.11c-19.49,28.99-46.57,42.97-46.57,42.97s-17.77-33.27-57.12-74.24
	C1182.15,498.19,1143.62,458.69,1109.17,440.53z"/>
<path class="st1" d="M637.18,711.78c0,0,26.09,49.13,103.55,61.01c0,0,22.34,5.23,46.1,0s50.85,15.21,50.85,15.21
	s19.49,12.36,43.01,11.88c23.52-0.48,28.47,26.61,30.04,34.22c0,0,6.8,31.37-3.18,67.01c0,0-5.7,21.86-4.28,56.55
	c1.43,34.69-38.02,63.21-68.44,55.6s-54.65-9.03-85.54-68.44c0,0-9.03-38.02-37.07-29.47c-28.04,8.55-42.77-24.71-42.77-24.71
	l-7.6-21.39c0,0-6.18-26.14-27.09-24.24c-20.91,1.9-44.2-21.86-44.2-21.86s-20.91-21.86-11.41-66.06
	C588.66,712.91,637.18,711.78,637.18,711.78z"/>
<linearGradient id="SVGID_2_" gradientUnits="userSpaceOnUse" x1="1276.0814" y1="426.5452" x2="1195.5089" y2="551.606">
	<stop  offset="0.2581" style="stop-color:#F1BFBE"/>
	<stop  offset="0.8541" style="stop-color:#FFFFFF"/>
</linearGradient>
<path class="st8" d="M1168.76,485.31c0,0,50.55-104.84,133.95-68.48c0,0,19.96,2.85,13.54,20.67
	c-6.42,17.82-10.08,42.58-24.95,73.43c-14.87,30.85-52.04,59.88-52.04,59.88S1199.48,505.32,1168.76,485.31z"/>
<g class="st9">
	<path class="st10" d="M1074.75,996.86c-3.51-0.84-6.95-2.08-10.28-3.59c-3.31-1.56-6.48-3.44-9.48-5.6
		c-6-4.33-11.1-9.86-15.44-15.87c-2.15-3.03-4.1-6.19-5.88-9.44c-1.77-3.26-3.34-6.62-4.78-10.02c-2.84-6.83-5.13-13.87-6.89-21.02
		c-3.58-14.3-5.35-28.93-6.03-43.55c-0.29-7.32-0.37-14.64-0.05-21.99c0.08-1.84,0.18-3.67,0.31-5.54l0.37-5.41
		c0.27-3.64,0.66-7.34,1.16-11c1.95-14.65,5.8-29.17,11.88-42.78c6.09-13.6,14.53-26.19,24.93-36.8
		c10.41-10.61,22.69-19.23,35.93-25.52c6.64-3.12,13.47-5.77,20.47-7.76c7-1.98,14.14-3.51,21.35-4.03
		c-3.53,0.77-6.98,1.76-10.39,2.88c-3.41,1.11-6.78,2.32-10.08,3.69c-6.6,2.73-13.03,5.81-19.12,9.43
		c-12.22,7.17-23.29,16.09-32.52,26.57c-4.63,5.22-8.77,10.84-12.45,16.74c-1.83,2.95-3.56,5.98-5.12,9.08
		c-1.62,3.07-3.04,6.25-4.41,9.44c-5.33,12.85-8.78,26.48-10.59,40.38c-0.45,3.48-0.8,6.95-1.1,10.48l-0.4,5.36
		c-0.13,1.72-0.24,3.48-0.33,5.24c-0.32,7.04-0.45,14.14-0.26,21.21c0.31,14.15,1.58,28.29,4.26,42.12
		c1.36,6.91,3.09,13.74,5.36,20.37c2.25,6.64,5.06,13.09,8.6,19.11c3.51,6.04,7.81,11.66,13.02,16.41c2.59,2.39,5.41,4.55,8.42,6.44
		C1068.22,993.83,1071.43,995.45,1074.75,996.86z"/>
</g>
<path class="st1" d="M642.58,1014.5c0,0-121.91-61.58-141.86-110.06c-19.95-48.48-18.02-66.27-18.02-66.27s6.63-63.96,35.62-57.3
	c0,0,21.86,9.5,28.51,40.87c0,0,3.33,18.06,21.86,32.32c18.53,14.26,20.44,62.26,20.44,62.26s-4.9,29.94,27.25,56.55
	C648.54,999.48,642.58,1014.5,642.58,1014.5"/>
<path class="st1" d="M724.1,546.62c0,0,48.48-35.43,17.59-49.11c0,0-10.93-8.93-29.47-2.75c-18.53,6.18-35.64-16.16-34.22-28.99
	c1.43-12.83,11.88-31.84,46.1-47.05c34.22-15.21,100.75-31.84,100.75-31.84l95.37,144.05l-67.13,34.07l-90.02,2.95L724.1,546.62z"/>
<path class="st7" d="M792.3,527.32c0,0,61.31-9.27,64.16,59.17c0,0,1.43,38.5-16.4,73.43c-17.82,34.93-6.65,52.99-40.87,84.12
	c0,0-24,32.08-84.59,21.39c0,0-46.57-7.25-79.37-56.49c-32.79-49.25-12.83-78.71-12.83-78.71s14.73-38.97,59.88-60.36
	C727.43,548.47,717.92,540.39,792.3,527.32z"/>
<linearGradient id="SVGID_3_" gradientUnits="userSpaceOnUse" x1="710.523" y1="677.397" x2="588.7117" y2="692.3326">
	<stop  offset="0.0475" style="stop-color:#F1BFBE"/>
	<stop  offset="0.9087" style="stop-color:#FFFFFF"/>
</linearGradient>
<path class="st11" d="M734.08,582.21c0,0,59.88-19.49,92.2,17.58c0,0,16.63,21.39-5.23,34.69c0,0-69.39-12.02-67.96,12.76
	c1.43,24.78-11.4,31.34,15.21,78.01c0,0,13.49,15.19,14.91,31.58c0,0-53.9,29.03-109.73-8.88c-55.83-37.91-59.08-82.92-57.26-97.43
	C618.7,630.76,655.35,591.67,734.08,582.21z"/>
<linearGradient id="SVGID_4_" gradientUnits="userSpaceOnUse" x1="643.6331" y1="691.7935" x2="796.7477" y2="628.7158">
	<stop  offset="0.108" style="stop-color:#FADFDF"/>
	<stop  offset="0.8656" style="stop-color:#F1BFBE"/>
</linearGradient>
<path class="st12" d="M799.07,604.92c0,0-105.5-17.11-106.93,52.75c-1.43,69.86,24.95,73.43,24.95,73.43s-83.94-16.98-84.83-74.14
	C631.37,599.8,750.9,586.66,799.07,604.92z"/>
<path class="st13" d="M965.17,1166.05"/>
<path class="st13" d="M735.98,1109.38"/>
<path class="st14" d="M512.14,923.39c0,0,28.51,27.09,28.04,67.49c-0.48,40.4,10.73,68.91,36.49,84.59
	c25.76,15.68,64.26,18.06,91.35,0c27.09-18.06,40.87-29.47,40.87-29.47s-81.95-39.18-111.48-57.85
	C567.9,969.48,525.45,939.55,512.14,923.39z"/>
<linearGradient id="SVGID_5_" gradientUnits="userSpaceOnUse" x1="626.8691" y1="1052.3751" x2="635.0444" y2="1217.8933">
	<stop  offset="0" style="stop-color:#F1BFBE"/>
	<stop  offset="0.4075" style="stop-color:#967979"/>
</linearGradient>
<path class="st15" d="M543.17,1024.9c0,0,55.38,76.02,165.72,21.11c0,0-41.4,32.24-53.24,36.03c-11.84,3.79-40.48,13.74-75.78-4.73
	C579.87,1077.3,549.26,1062.96,543.17,1024.9z"/>
<path class="st14" d="M748.99,1060.17c0,0,34.04,10.5,38.32,60.4c4.28,49.9,82.69,56.32,82.69,56.32s54.24,0,81.02-47.76
	s26.77-47.76,26.77-47.76s-33.65,15.19-42.92,12.77c0,0-53.7-0.14-92.06-8.69C804.46,1076.9,748.99,1060.17,748.99,1060.17z"/>
<linearGradient id="SVGID_6_" gradientUnits="userSpaceOnUse" x1="870.6357" y1="1145.0933" x2="880.7063" y2="1309.2395">
	<stop  offset="0" style="stop-color:#F1BFBE"/>
	<stop  offset="0.242" style="stop-color:#967979"/>
</linearGradient>
<path class="st16" d="M787.31,1122.57c0,0,80.1,65.1,164.44,7.24c0,0-16.32,39.18-63.47,46.62c-47.15,7.44-81.57-16.37-91.24-29.49
	C795.05,1144.25,786.95,1134.69,787.31,1122.57z"/>
<path class="st14" d="M1207.91,949.07c0,0-22.11,17.81-15.33,43.11c6.77,25.31-6.06,60.28-22.81,68.99c0,0-46.34,35.09-113.35,10.14
	c0,0-9.63-4.29-15.69-16.05l81.93-44.63C1122.66,1010.63,1182.61,972.97,1207.91,949.07z"/>
<linearGradient id="SVGID_7_" gradientUnits="userSpaceOnUse" x1="1118.3674" y1="1045.6649" x2="1143.9282" y2="1196.2258">
	<stop  offset="0.0854" style="stop-color:#F1BFBE"/>
	<stop  offset="0.2634" style="stop-color:#967979"/>
</linearGradient>
<path class="st17" d="M1040.73,1056.26c0,0,115.8,28.33,152.72-36.27c0,0-1.94,30.93-21.54,44.12
	c-19.6,13.19-50.61,21.84-80.55,17.16C1061.41,1076.59,1048.21,1072.29,1040.73,1056.26z"/>
<path class="st18" d="M758.79,438.21c0,0,58.93,4.55,119.29,59.3c0,0,16.16,16.26,18.06,23.87c1.9,7.6,18.06,12.83,22.81,10.46
	c0,0,93.15-59.41,176.32-71.76c0,0-20.68-176.55-54.54-205.43C1040.73,254.65,820.1,332.71,758.79,438.21z"/>
<path class="st3" d="M997.37,544.67"/>
<path class="st3" d="M1258.45,379.76"/>
<path class="st3" d="M772.34,429.66"/>
<path class="st19" d="M772.34,432.15c0,0,72,16.31,114.42,65.36c0,0,10.34,11.63,16.4,18.76s6.75,7.32,19.77,13.11
	c0,0,46.17-26.79,88.05-44.54c41.88-17.75,76.45-23.46,76.45-23.46s-12.47-134.72-47.4-194.6
	C1040.02,266.77,857.88,321.3,772.34,432.15z"/>
<g>
	<path class="st20" d="M220.52,426.01c0,0,9.57,50.6,89.8,54.59c0,0,36.96-9.04,65.54,6.37s34.19,47.56,34.19,47.56l-21.27,30.03
		c0,0-35.34,10.68-82.58-1l20.21-8.32c0,0-48.85,6.12-74.38-16.13l11.68,2.14C263.71,541.24,211.95,512.26,220.52,426.01z"/>
	<g>
		<path class="st21" d="M227.34,457.98c6,5.34,12.07,10.16,18.36,14.4c6.26,4.25,12.73,7.86,19.33,10.49
			c3.28,1.36,6.63,2.37,9.96,3.17c1.66,0.44,3.35,0.64,5,0.98c1.67,0.19,3.33,0.45,5,0.49c1.66,0.14,3.32,0.05,4.98,0.08
			c1.65-0.17,3.31-0.13,4.95-0.43c0.82-0.13,1.64-0.17,2.46-0.34l2.45-0.49c0.82-0.13,1.63-0.37,2.44-0.59l2.51-0.66
			c8.41-2.4,17.29-3.5,25.99-2.82c4.35,0.3,8.65,0.94,12.81,2c2.09,0.49,4.14,1.11,6.17,1.74c2.01,0.72,4.01,1.42,5.95,2.26
			c7.8,3.27,14.93,7.67,21.29,12.84c3.17,2.6,6.16,5.38,8.92,8.37c2.75,2.98,5.32,6.13,7.42,9.59c-6.98-3.99-13.91-7.45-20.93-10.4
			c-7.01-2.93-14.06-5.37-21.13-6.96c-7.06-1.62-14.12-2.51-21.06-2.38c-6.94,0.03-13.74,1.16-20.37,3.02l-3.17,0.81
			c-1.09,0.27-2.16,0.58-3.27,0.74l-3.32,0.56c-1.11,0.18-2.24,0.25-3.36,0.35c-2.24,0.25-4.51,0.2-6.76,0.23
			c-2.25-0.16-4.51-0.21-6.73-0.61c-2.23-0.27-4.41-0.79-6.59-1.27c-2.15-0.59-4.28-1.21-6.33-2.02c-2.08-0.74-4.07-1.65-6.04-2.58
			l-2.88-1.52c-0.95-0.52-1.86-1.09-2.79-1.64c-7.3-4.54-13.6-10.21-18.83-16.55c-2.61-3.18-5-6.5-7.09-9.99
			C230.58,465.39,228.69,461.79,227.34,457.98z"/>
	</g>
</g>
<linearGradient id="SVGID_8_" gradientUnits="userSpaceOnUse" x1="783.5394" y1="376.0226" x2="792.6353" y2="436.8947" gradientTransform="matrix(0.893 -0.45 0.45 0.893 -2.7682 521.1034)">
	<stop  offset="0" style="stop-color:#FEEABF"/>
	<stop  offset="0.501" style="stop-color:#F5CE9D"/>
	<stop  offset="0.8268" style="stop-color:#F0C08C"/>
</linearGradient>
<path class="st22" d="M844.57,455.03c0,0-10.81,72.25,25.04,104.55c6.81-0.5,19.06-2.31,32.08-9.8
	c10.37-5.96,17.18-13.2,21.14-18.13C914.9,529.1,879,513.9,844.57,455.03z"/>
<linearGradient id="SVGID_9_" gradientUnits="userSpaceOnUse" x1="400.5769" y1="359.7448" x2="409.6727" y2="420.6169" gradientTransform="matrix(-0.9716 0.2367 0.2367 0.9716 1402.6545 -35.1749)">
	<stop  offset="0" style="stop-color:#FEEABF"/>
	<stop  offset="0.501" style="stop-color:#F5CE9D"/>
	<stop  offset="0.8268" style="stop-color:#F0C08C"/>
</linearGradient>
<path class="st23" d="M1083.08,357.63c0,0,55.09,47.99,48.75,95.82c-5.51,4.04-16,10.6-30.77,13.35
	c-11.76,2.19-21.64,1.1-27.85-0.09C1077.59,459.62,1095.06,424.77,1083.08,357.63z"/>
<path class="st24" d="M310.38,990.4"/>
<g>
	<path class="st25" d="M1242.12,746.53c0,0-95.17-25.66-142.22,74.85c0,0-32.08,59.88-9.62,119.76c0,0,15.12,53.19,65.23,33.15
		c5.35-2.14,87.33-31.01,113.35-83.41C1268.85,890.89,1320.18,780.75,1242.12,746.53z"/>
	<linearGradient id="SVGID_10_" gradientUnits="userSpaceOnUse" x1="1122.358" y1="901.0634" x2="1129.2938" y2="862.668">
		<stop  offset="0.1214" style="stop-color:#FADFDF"/>
		<stop  offset="0.7242" style="stop-color:#967979"/>
	</linearGradient>
	<path class="st26" d="M1111.43,854.29c0,0,7.37-19.25,21.86-15.68c14.49,3.56,14.02,32.32,14.02,32.32s0.24,32.08-7.6,39.45
		c0,0-9.5,10.46-20.67,7.37s-14.02-13.31-15.21-19.01C1102.64,893.02,1103.29,871.4,1111.43,854.29z"/>
	<linearGradient id="SVGID_11_" gradientUnits="userSpaceOnUse" x1="1228.1995" y1="848.4803" x2="1242.0793" y2="819.6434">
		<stop  offset="0.0998" style="stop-color:#FADFDF"/>
		<stop  offset="0.8268" style="stop-color:#967979"/>
	</linearGradient>
	<path class="st27" d="M1239.27,788.47c0,0-21.86,2.61-19.25,43.96c0,0-0.48,21.66,11.64,28.77c12.12,7.11,22.34-11.42,22.34-11.42
		s5.47-10.48,4.28-24.13c-1.19-13.65-2.55-24.29-8.38-31.24C1249.9,794.41,1244.85,787.22,1239.27,788.47z"/>
</g>
</svg>
