<?xml version="1.0" encoding="utf-8"?>
<!-- Generator: Adobe Illustrator 24.0.1, SVG Export Plug-In . SVG Version: 6.00 Build 0)  -->
<svg version="1.1" xmlns="http://www.w3.org/2000/svg" xmlns:xlink="http://www.w3.org/1999/xlink" x="0px" y="0px"
	 viewBox="0 0 612 1008" style="enable-background:new 0 0 612 1008;" xml:space="preserve">
<style type="text/css">
	.st0{stroke:#000000;stroke-miterlimit:10;}
</style>
<g id="Capa_1">
</g>
<g id="Capa_2">
	<g>
		<path class="st0" d="M257.89,0c0,0,16.3,32.86,57.69,71.74s5.64,116.39,5.64,116.39s-12.03,17.77-22.98,31.03
			c-22.11,26.77-58.42,76.05-57.27,113.58c2.27,74.12,17.56,142.81,97.21,179.77c0,0,98.43,41.41,95.29,82.17
			c0,0,2.52,40.13-37.62,111.61c0,0-40.13,99.07,17.55,179.33c0,0,42.01,58.21,120.39,90.29c0,0,31.98,11.5,38.88,32.09l39.35,0V0
			L257.89,0z"/>
		<path class="st0" d="M228.73,570.85c0,0-31.66,8.78-28.84,72.74c2.82,63.96,57.37,74.93,57.37,74.93s39.04,6.66,62.39-25.71
			c27.59-38.25-4.39-83.39-4.39-83.39S277.32,559.25,228.73,570.85z"/>
	</g>
</g>
</svg>
