<svg xmlns="http://www.w3.org/2000/svg" version="1.1" xmlns:xlink="http://www.w3.org/1999/xlink" xmlns:svgjs="http://svgjs.dev/svgjs" width="1440" height="560" preserveAspectRatio="none" viewBox="0 0 1440 560"><g mask="url(&quot;#SvgjsMask1263&quot;)" fill="none"><rect width="1440" height="560" x="0" y="0" fill="url(&quot;#SvgjsLinearGradient1264&quot;)"></rect><path d="M 0,193 C 57.6,155.6 172.8,-2.6 288,6 C 403.2,14.6 460.8,223.4 576,236 C 691.2,248.6 748.8,87.4 864,69 C 979.2,50.6 1036.8,156.2 1152,144 C 1267.2,131.8 1382.4,35.2 1440,8L1440 560L0 560z" fill="rgba(209, 139, 170, 1)"></path><path d="M 0,477 C 48,441.2 144,286.8 240,298 C 336,309.2 384,525.2 480,533 C 576,540.8 624,350.2 720,337 C 816,323.8 864,458.6 960,467 C 1056,475.4 1104,361.8 1200,379 C 1296,396.2 1392,518.2 1440,553L1440 560L0 560z" fill="rgba(226, 178, 179, 1)"></path></g><defs><mask id="SvgjsMask1263"><rect width="1440" height="560" fill="#ffffff"></rect></mask><linearGradient x1="50%" y1="100%" x2="50%" y2="0%" gradientUnits="userSpaceOnUse" id="SvgjsLinearGradient1264"><stop stop-color="rgba(66, 49, 99, 1)" offset="0"></stop><stop stop-color="rgba(102, 78, 148, 1)" offset="1"></stop></linearGradient></defs></svg>